<svg id="github" xmlns="http://www.w3.org/2000/svg" viewBox="0 0 50 50"><defs><style>.cls-1{fill:#fff;fill-rule:evenodd;}</style></defs><title>Artboard 1</title><path id="icon" class="cls-1" d="M25,2.83a22.73,22.73,0,0,0-7.18,44.29c1.14.21,1.55-.49,1.55-1.1s0-2,0-3.87c-6.32,1.37-7.66-3-7.66-3A6,6,0,0,0,9.16,35.8c-2.06-1.41.16-1.38.16-1.38a4.77,4.77,0,0,1,3.48,2.34c2,3.47,5.32,2.47,6.61,1.89a4.86,4.86,0,0,1,1.44-3C15.8,35,10.5,33.08,10.5,24.37a8.79,8.79,0,0,1,2.34-6.1,8.17,8.17,0,0,1,.22-6s1.91-.61,6.25,2.33a21.54,21.54,0,0,1,11.38,0c4.34-2.94,6.24-2.33,6.24-2.33a8.16,8.16,0,0,1,.23,6,8.77,8.77,0,0,1,2.34,6.1c0,8.73-5.31,10.65-10.38,11.22a5.42,5.42,0,0,1,1.54,4.21c0,3,0,5.49,0,6.23s.41,1.31,1.56,1.09A22.73,22.73,0,0,0,25,2.83Z"/></svg>