<svg xmlns="http://www.w3.org/2000/svg" viewBox="0 0 50 50"><defs><style>.cls-1{fill:#fff;}</style></defs><title>Artboard 2</title><g id="twitter"><path id="icon" class="cls-1" d="M15.71,45.3c18.85,0,29.17-15.62,29.17-29.17,0-.44,0-.89,0-1.33A20.86,20.86,0,0,0,50,9.5a20.46,20.46,0,0,1-5.89,1.61,10.29,10.29,0,0,0,4.51-5.67,20.54,20.54,0,0,1-6.51,2.49A10.26,10.26,0,0,0,24.6,17.28,29.1,29.1,0,0,1,3.48,6.57,10.26,10.26,0,0,0,6.65,20.26,10.17,10.17,0,0,1,2,19v.13a10.25,10.25,0,0,0,8.22,10,10.23,10.23,0,0,1-4.63.18,10.26,10.26,0,0,0,9.58,7.12,20.57,20.57,0,0,1-12.73,4.4A20.87,20.87,0,0,1,0,40.69a29,29,0,0,0,15.71,4.6"/></g></svg>